<?xml version="1.0" encoding="iso-8859-1"?>
<!-- Generator: Adobe Illustrator 17.1.0, SVG Export Plug-In . SVG Version: 6.00 Build 0)  -->
<!DOCTYPE svg PUBLIC "-//W3C//DTD SVG 1.1//EN" "http://www.w3.org/Graphics/SVG/1.1/DTD/svg11.dtd">
<svg version="1.1" id="Capa_1" xmlns="http://www.w3.org/2000/svg" xmlns:xlink="http://www.w3.org/1999/xlink" x="0px" y="0px"
	 viewBox="0 0 85.838 85.838" style="enable-background:new 0 0 85.838 85.838;" xml:space="preserve">
<g>
	<path d="M69.609,76.622l-18.287-19.16c0.866-0.448,1.602-1.193,1.936-2.055l5.074-13.085c0.516-1.331,0.329-3.244-0.437-4.45
		l-8.154-12.856c-0.779-1.229-2.462-2.154-3.916-2.154h-1.266h-0.636H29.53h-0.636h-1.264c-1.454,0-3.137,0.926-3.916,2.154
		l-8.155,12.856c-0.765,1.206-0.952,3.119-0.436,4.45l5.073,13.085c0.349,0.899,1.134,1.669,2.048,2.109l-4.383,5.033
		c-1.096,1.258-1.954,3.55-1.954,5.218v14.472c0,1.984,1.615,3.6,3.6,3.6h2.686c1.985,0,3.6-1.615,3.6-3.6V69.657
		c0-1.144,0.753-2.812,1.612-3.567l9.692-8.535h0.91c0.207,0.378,0.446,0.742,0.757,1.067l23.738,24.871
		c0.939,0.984,2.255,1.548,3.61,1.548c1.28,0,2.488-0.487,3.401-1.372C71.466,81.774,71.509,78.613,69.609,76.622z M25.893,49.956
		l-3.22-7.606c-0.303-0.714-0.206-1.965,0.203-2.625l3.017-4.869V49.956z M47.559,34.854l3.019,4.873
		c0.408,0.658,0.505,1.909,0.203,2.624l-3.222,7.608V34.854z"/>
	<path d="M36.726,20.572c5.672,0,10.287-4.614,10.287-10.286C47.013,4.614,42.398,0,36.726,0S26.44,4.614,26.44,10.286
		C26.44,15.958,31.055,20.572,36.726,20.572z"/>
</g>
<g>
</g>
<g>
</g>
<g>
</g>
<g>
</g>
<g>
</g>
<g>
</g>
<g>
</g>
<g>
</g>
<g>
</g>
<g>
</g>
<g>
</g>
<g>
</g>
<g>
</g>
<g>
</g>
<g>
</g>
</svg>
